<mxfile host="app.diagrams.net" agent="Mozilla/5.0 (Macintosh; Intel Mac OS X 10_15_7) AppleWebKit/537.36 (KHTML, like Gecko) Chrome/127.0.0.0 Safari/537.36" version="24.7.7">
  <diagram name="페이지-1" id="QbztByGfqptnNPUHPPQa">
    <mxGraphModel dx="1434" dy="704" grid="1" gridSize="10" guides="1" tooltips="1" connect="1" arrows="1" fold="1" page="1" pageScale="1" pageWidth="827" pageHeight="1169" math="0" shadow="0">
      <root>
        <mxCell id="0" />
        <mxCell id="1" parent="0" />
        <mxCell id="I1ctSwLa6sog0B5lawNt-10" style="edgeStyle=orthogonalEdgeStyle;rounded=0;orthogonalLoop=1;jettySize=auto;html=1;exitX=0;exitY=0.5;exitDx=0;exitDy=0;exitPerimeter=0;" edge="1" parent="1" source="I1ctSwLa6sog0B5lawNt-2" target="I1ctSwLa6sog0B5lawNt-4">
          <mxGeometry relative="1" as="geometry">
            <mxPoint x="30" y="410" as="targetPoint" />
            <mxPoint x="100" y="140" as="sourcePoint" />
            <Array as="points">
              <mxPoint x="50" y="160" />
              <mxPoint x="50" y="435" />
            </Array>
          </mxGeometry>
        </mxCell>
        <mxCell id="I1ctSwLa6sog0B5lawNt-2" value="&lt;font style=&quot;font-size: 25px;&quot;&gt;Kafka&lt;/font&gt;" style="shape=cylinder3;whiteSpace=wrap;html=1;boundedLbl=1;backgroundOutline=1;size=15;" vertex="1" parent="1">
          <mxGeometry x="140" y="90" width="110" height="140" as="geometry" />
        </mxCell>
        <mxCell id="I1ctSwLa6sog0B5lawNt-17" style="edgeStyle=orthogonalEdgeStyle;rounded=0;orthogonalLoop=1;jettySize=auto;html=1;exitX=0.5;exitY=1;exitDx=0;exitDy=0;entryX=0.5;entryY=1;entryDx=0;entryDy=0;entryPerimeter=0;" edge="1" parent="1" source="I1ctSwLa6sog0B5lawNt-4" target="I1ctSwLa6sog0B5lawNt-8">
          <mxGeometry relative="1" as="geometry">
            <mxPoint x="680" y="510" as="targetPoint" />
            <Array as="points">
              <mxPoint x="195" y="580" />
              <mxPoint x="665" y="580" />
            </Array>
          </mxGeometry>
        </mxCell>
        <mxCell id="I1ctSwLa6sog0B5lawNt-4" value="&lt;font style=&quot;font-size: 17px;&quot;&gt;SNS&lt;/font&gt;&lt;div style=&quot;font-size: 17px;&quot;&gt;&lt;font style=&quot;font-size: 17px;&quot;&gt;Application&lt;/font&gt;&lt;/div&gt;" style="rounded=0;whiteSpace=wrap;html=1;" vertex="1" parent="1">
          <mxGeometry x="122.5" y="380" width="145" height="90" as="geometry" />
        </mxCell>
        <mxCell id="I1ctSwLa6sog0B5lawNt-7" value="&lt;font style=&quot;font-size: 25px;&quot;&gt;Redis&lt;/font&gt;" style="shape=cylinder3;whiteSpace=wrap;html=1;boundedLbl=1;backgroundOutline=1;size=15;" vertex="1" parent="1">
          <mxGeometry x="450" y="365" width="110" height="140" as="geometry" />
        </mxCell>
        <mxCell id="I1ctSwLa6sog0B5lawNt-8" value="&lt;font style=&quot;font-size: 25px;&quot;&gt;MySQL&lt;/font&gt;" style="shape=cylinder3;whiteSpace=wrap;html=1;boundedLbl=1;backgroundOutline=1;size=15;" vertex="1" parent="1">
          <mxGeometry x="610" y="365" width="110" height="140" as="geometry" />
        </mxCell>
        <mxCell id="I1ctSwLa6sog0B5lawNt-11" value="&lt;font style=&quot;font-size: 16px;&quot;&gt;consume events&lt;/font&gt;" style="text;html=1;align=center;verticalAlign=middle;resizable=0;points=[];autosize=1;strokeColor=none;fillColor=none;labelBackgroundColor=default;" vertex="1" parent="1">
          <mxGeometry x="10" y="268" width="140" height="30" as="geometry" />
        </mxCell>
        <mxCell id="I1ctSwLa6sog0B5lawNt-12" style="edgeStyle=orthogonalEdgeStyle;rounded=0;orthogonalLoop=1;jettySize=auto;html=1;entryX=0;entryY=0.607;entryDx=0;entryDy=0;entryPerimeter=0;" edge="1" parent="1">
          <mxGeometry relative="1" as="geometry">
            <mxPoint x="270" y="430" as="sourcePoint" />
            <mxPoint x="450" y="430" as="targetPoint" />
          </mxGeometry>
        </mxCell>
        <mxCell id="I1ctSwLa6sog0B5lawNt-13" value="&lt;font style=&quot;font-size: 16px;&quot;&gt;&amp;nbsp; cache&amp;nbsp;&amp;nbsp;&lt;/font&gt;" style="text;html=1;align=center;verticalAlign=middle;resizable=0;points=[];autosize=1;strokeColor=none;fillColor=none;labelBackgroundColor=default;" vertex="1" parent="1">
          <mxGeometry x="330" y="420" width="80" height="30" as="geometry" />
        </mxCell>
        <mxCell id="I1ctSwLa6sog0B5lawNt-18" value="&lt;font style=&quot;font-size: 16px;&quot;&gt;&amp;nbsp; persistent data&amp;nbsp;&amp;nbsp;&lt;/font&gt;" style="text;html=1;align=center;verticalAlign=middle;resizable=0;points=[];autosize=1;strokeColor=none;fillColor=none;labelBackgroundColor=default;" vertex="1" parent="1">
          <mxGeometry x="330" y="560" width="150" height="30" as="geometry" />
        </mxCell>
        <mxCell id="I1ctSwLa6sog0B5lawNt-21" value="" style="endArrow=classic;html=1;rounded=0;entryX=1;entryY=0.5;entryDx=0;entryDy=0;entryPerimeter=0;" edge="1" parent="1" target="I1ctSwLa6sog0B5lawNt-2">
          <mxGeometry width="50" height="50" relative="1" as="geometry">
            <mxPoint x="300" y="430" as="sourcePoint" />
            <mxPoint x="330" y="290" as="targetPoint" />
            <Array as="points">
              <mxPoint x="300" y="160" />
            </Array>
          </mxGeometry>
        </mxCell>
        <mxCell id="I1ctSwLa6sog0B5lawNt-23" value="&lt;font style=&quot;font-size: 16px;&quot;&gt;product events for async&lt;/font&gt;" style="edgeLabel;html=1;align=center;verticalAlign=middle;resizable=0;points=[];" vertex="1" connectable="0" parent="I1ctSwLa6sog0B5lawNt-21">
          <mxGeometry x="0.025" y="4" relative="1" as="geometry">
            <mxPoint y="17" as="offset" />
          </mxGeometry>
        </mxCell>
      </root>
    </mxGraphModel>
  </diagram>
</mxfile>
